<svg width="40" height="40" viewBox="0 0 40 40" fill="none" xmlns="http://www.w3.org/2000/svg">
<rect width="40" height="40" rx="20" fill="#5865F2"/>
<path d="M28.317 12.3697C26.7873 11.6678 25.147 11.1507 23.4319 10.8545C23.4007 10.8488 23.3695 10.8631 23.3534 10.8917C23.1424 11.2669 22.9087 11.7564 22.7451 12.1411C20.9004 11.8649 19.0652 11.8649 17.2583 12.1411C17.0946 11.7478 16.8525 11.2669 16.6406 10.8917C16.6245 10.864 16.5933 10.8498 16.562 10.8545C14.8479 11.1497 13.2076 11.6669 11.6769 12.3697C11.6637 12.3754 11.6523 12.3849 11.6448 12.3973C8.53339 17.0457 7.68105 21.5798 8.09918 26.0577C8.10107 26.0796 8.11337 26.1005 8.1304 26.1138C10.1832 27.6214 12.1717 28.5366 14.1233 29.1432C14.1545 29.1528 14.1876 29.1413 14.2075 29.1156C14.6691 28.4852 15.0806 27.8204 15.4335 27.1214C15.4543 27.0805 15.4344 27.0319 15.3919 27.0157C14.7391 26.7681 14.1176 26.4662 13.5197 26.1234C13.4724 26.0958 13.4687 26.0281 13.5122 25.9957C13.638 25.9015 13.7638 25.8034 13.884 25.7043C13.9057 25.6862 13.936 25.6824 13.9615 25.6938C17.8893 27.4871 22.1415 27.4871 26.023 25.6938C26.0485 25.6815 26.0788 25.6853 26.1015 25.7034C26.2216 25.8024 26.3475 25.9015 26.4742 25.9957C26.5177 26.0281 26.5149 26.0958 26.4676 26.1234C25.8697 26.4729 25.2482 26.7681 24.5945 27.0148C24.552 27.0309 24.533 27.0805 24.5538 27.1214C24.9143 27.8195 25.3258 28.4842 25.7789 29.1147C25.7978 29.1413 25.8319 29.1528 25.8631 29.1432C27.8241 28.5366 29.8126 27.6214 31.8654 26.1138C31.8834 26.1005 31.8948 26.0805 31.8967 26.0586C32.3971 20.8817 31.0585 16.3847 28.3482 12.3982C28.3416 12.3849 28.3303 12.3754 28.317 12.3697ZM16.02 23.3311C14.8375 23.3311 13.8631 22.2454 13.8631 20.9122C13.8631 19.5789 14.8186 18.4932 16.02 18.4932C17.2309 18.4932 18.1958 19.5884 18.1769 20.9122C18.1769 22.2454 17.2214 23.3311 16.02 23.3311ZM23.9947 23.3311C22.8123 23.3311 21.8379 22.2454 21.8379 20.9122C21.8379 19.5789 22.7933 18.4932 23.9947 18.4932C25.2056 18.4932 26.1705 19.5884 26.1516 20.9122C26.1516 22.2454 25.2056 23.3311 23.9947 23.3311Z" fill="white"/>
</svg>

