<svg width="40" height="40" viewBox="0 0 40 40" fill="none" xmlns="http://www.w3.org/2000/svg">
<rect width="40" height="40" rx="20" fill="#1C1B1F"/>
<path fill-rule="evenodd" clip-rule="evenodd" d="M19.9958 7.0791C17.147 7.08058 14.3916 8.08956 12.2224 9.92562C10.0531 11.7617 8.61139 14.3051 8.15503 17.1011C7.69867 19.8971 8.25741 22.7633 9.73135 25.1873C11.2053 27.6112 13.4983 29.4349 16.2004 30.3321C16.7965 30.4427 17.0211 30.0732 17.0211 29.7591C17.0211 29.4449 17.0092 28.5341 17.0052 27.5383C13.6669 28.2595 12.9615 26.1296 12.9615 26.1296C12.417 24.7465 11.6301 24.383 11.6301 24.383C10.5412 23.6441 11.7116 23.6579 11.7116 23.6579C12.9178 23.7428 13.5516 24.8888 13.5516 24.8888C14.6207 26.7124 16.3594 26.1849 17.0429 25.8767C17.1502 25.1042 17.4622 24.5786 17.806 24.2803C15.1393 23.9799 12.3375 22.9565 12.3375 18.3845C12.321 17.1988 12.7635 16.0522 13.5735 15.1818C13.4503 14.8815 13.039 13.6683 13.6907 12.0205C13.6907 12.0205 14.6982 11.7005 16.9913 13.2435C18.9582 12.7087 21.0333 12.7087 23.0002 13.2435C25.2913 11.7005 26.2968 12.0205 26.2968 12.0205C26.9505 13.6644 26.5392 14.8775 26.416 15.1818C27.2286 16.0523 27.672 17.201 27.654 18.3885C27.654 22.9703 24.8462 23.9799 22.1756 24.2743C22.6048 24.6458 22.9883 25.3709 22.9883 26.4852C22.9883 28.0817 22.9744 29.3659 22.9744 29.7591C22.9744 30.0772 23.191 30.4486 23.799 30.3321C26.5014 29.4348 28.7947 27.6108 30.2686 25.1864C31.7425 22.7621 32.301 19.8954 31.8441 17.0992C31.3872 14.3029 29.9448 11.7595 27.7748 9.92371C25.6048 8.08796 22.8488 7.07964 19.9997 7.0791H19.9958Z" fill="white"/>
<path d="M20.153 30.5569C20.1271 30.6162 20.0317 30.634 19.9542 30.5925C19.8768 30.551 19.8191 30.4739 19.847 30.4127C19.8748 30.3515 19.9682 30.3356 20.0457 30.3771C20.1232 30.4186 20.1828 30.4977 20.153 30.5569Z" fill="white"/>
<path d="M20.1406 30.9463C20.0995 30.9669 20.0524 30.9727 20.0074 30.9626C19.9625 30.9525 19.9225 30.9272 19.8942 30.891C19.8167 30.808 19.8008 30.6934 19.8604 30.642C19.92 30.5907 20.0273 30.6144 20.1048 30.6973C20.1823 30.7803 20.2002 30.8949 20.1406 30.9463Z" fill="white"/>
<path d="M20.1382 31.3741C20.0646 31.4255 19.9394 31.3741 19.8699 31.2714C19.8507 31.253 19.8354 31.2309 19.8249 31.2064C19.8145 31.182 19.8091 31.1557 19.8091 31.1291C19.8091 31.1026 19.8145 31.0763 19.8249 31.0518C19.8354 31.0274 19.8507 31.0053 19.8699 30.9869C19.9434 30.9375 20.0686 30.9869 20.1382 31.0876C20.2077 31.1884 20.2097 31.3227 20.1382 31.3741Z" fill="white"/>
<path d="M20.1866 31.7866C20.1211 31.8597 19.9879 31.84 19.8786 31.7412C19.7694 31.6424 19.7435 31.508 19.8091 31.4369C19.8747 31.3658 20.0078 31.3855 20.1211 31.4823C20.2343 31.5792 20.2562 31.7155 20.1866 31.7866Z" fill="white"/>
<path d="M20.2493 32.0925C20.2195 32.1853 20.0844 32.2268 19.9492 32.1873C19.8141 32.1478 19.7247 32.0371 19.7505 31.9423C19.7764 31.8475 19.9135 31.804 20.0506 31.8475C20.1877 31.8909 20.2751 31.9957 20.2493 32.0925Z" fill="white"/>
<path d="M20.2554 32.3385C20.2733 32.4354 20.1739 32.5361 20.0308 32.5598C19.8878 32.5835 19.7626 32.5262 19.7447 32.4314C19.7268 32.3366 19.8301 32.2338 19.9692 32.2081C20.1083 32.1825 20.2375 32.2417 20.2554 32.3385Z" fill="white"/>
<path d="M20.2573 32.7391C20.2573 32.8359 20.1461 32.9189 20.003 32.9209C19.8599 32.9228 19.7427 32.8438 19.7427 32.747C19.7427 32.6502 19.8539 32.5672 19.997 32.5652C20.1401 32.5632 20.2573 32.6403 20.2573 32.7391Z" fill="white"/>
</svg>
