<svg width="40" height="40" viewBox="0 0 40 40" fill="none" xmlns="http://www.w3.org/2000/svg">
<rect width="40" height="40" rx="20" fill="#1DA1F2"/>
<path d="M15.5475 29.7505C24.6042 29.7505 29.5578 22.2472 29.5578 15.7403C29.5578 15.5272 29.5578 15.315 29.5434 15.1038C30.507 14.4068 31.3389 13.5437 32 12.555C31.1014 12.9534 30.148 13.2146 29.1718 13.3297C30.1998 12.7144 30.9692 11.7465 31.3366 10.6062C30.3701 11.1798 29.3126 11.584 28.2099 11.8014C27.4675 11.012 26.4856 10.4892 25.4162 10.3141C24.3468 10.1389 23.2494 10.3211 22.294 10.8324C21.3385 11.3438 20.5782 12.1558 20.1307 13.1427C19.6833 14.1297 19.5735 15.2367 19.8186 16.2923C17.8609 16.1941 15.9458 15.6853 14.1975 14.799C12.4492 13.9127 10.9068 12.6687 9.6704 11.1476C9.04073 12.2316 8.84787 13.5149 9.1311 14.7361C9.41433 15.9573 10.1523 17.0246 11.1949 17.7208C10.4112 17.6978 9.64465 17.4864 8.96 17.1044V17.1668C8.96031 18.3037 9.35385 19.4054 10.0739 20.2852C10.7939 21.165 11.7961 21.7686 12.9104 21.9937C12.1855 22.1915 11.4249 22.2204 10.687 22.0782C11.0018 23.0565 11.6144 23.912 12.4392 24.5251C13.2641 25.1382 14.2598 25.4783 15.2874 25.4977C14.2664 26.3002 13.0973 26.8935 11.8469 27.2437C10.5964 27.5939 9.28922 27.6942 8 27.5387C10.2518 28.9837 12.8719 29.7502 15.5475 29.7467" fill="white"/>
</svg>
